<?xml version="1.0" encoding="utf-8"?>
<!-- Generator: Adobe Illustrator 26.4.1, SVG Export Plug-In . SVG Version: 6.00 Build 0)  -->
<svg version="1.1" id="Capa_1" xmlns="http://www.w3.org/2000/svg" xmlns:xlink="http://www.w3.org/1999/xlink" x="0px" y="0px"
	 viewBox="0 0 90 90" style="enable-background:new 0 0 90 90;" xml:space="preserve">
<style type="text/css">
	.st0{fill:#CC9A46;}
	.st1{fill:#CC9A44;}
</style>
<path class="st0" d="M31.14,46.34h-5.05l-6.4-7.72c-0.47,0.01-0.87,0.02-1.16,0.02c-0.12,0-0.25,0-0.39-0.01s-0.28-0.01-0.43-0.01
	v4.8c0,1.04,0.13,1.68,0.39,1.94c0.35,0.36,0.88,0.53,1.59,0.53h0.74v0.45h-8.11v-0.45h0.71c0.8,0,1.37-0.22,1.72-0.68
	c0.2-0.24,0.29-0.85,0.29-1.79V32.76c0-1.04-0.13-1.68-0.39-1.94c-0.37-0.36-0.9-0.53-1.62-0.53h-0.71v-0.45h6.89
	c2.01,0,3.49,0.13,4.44,0.38c0.95,0.26,1.76,0.73,2.43,1.42c0.67,0.69,0.99,1.5,0.99,2.45c0,1.02-0.39,1.89-1.14,2.64
	c-0.76,0.74-1.93,1.27-3.52,1.58l3.91,4.74c0.9,1.09,1.66,1.81,2.31,2.17c0.64,0.36,1.48,0.58,2.51,0.68L31.14,46.34L31.14,46.34z
	 M17.71,37.86c0.18,0,0.33,0,0.46,0.01c0.13,0.01,0.23,0.01,0.32,0.01c1.8,0,3.16-0.35,4.08-1.02c0.91-0.68,1.38-1.55,1.38-2.61
	c0-1.03-0.37-1.87-1.11-2.51c-0.74-0.65-1.72-0.96-2.93-0.96c-0.54,0-1.27,0.08-2.19,0.23L17.71,37.86L17.71,37.86z"/>
<path class="st0" d="M38.31,29.85h6.6v0.45h-0.37c-0.25,0-0.59,0.09-1.06,0.28c-0.46,0.19-0.89,0.45-1.27,0.8
	c-0.39,0.35-0.85,0.92-1.41,1.7l-4.56,6.26v4.13c0,1.02,0.13,1.65,0.39,1.89c0.35,0.35,0.91,0.51,1.68,0.51h0.61v0.45h-8.03v-0.44
	h0.67c0.8,0,1.37-0.21,1.7-0.63c0.2-0.26,0.31-0.86,0.31-1.77v-3.9l-5.19-6.9c-0.61-0.81-1.02-1.32-1.24-1.52s-0.67-0.45-1.36-0.73
	c-0.19-0.08-0.45-0.12-0.81-0.12v-0.45h8.09v0.45h-0.42c-0.44,0-0.84,0.09-1.21,0.27s-0.56,0.45-0.56,0.8c0,0.3,0.28,0.81,0.85,1.58
	l3.95,5.31l3.71-5.08c0.56-0.76,0.84-1.32,0.84-1.7c0-0.22-0.06-0.43-0.2-0.6c-0.14-0.17-0.33-0.32-0.58-0.42
	c-0.25-0.1-0.63-0.15-1.13-0.15L38.31,29.85L38.31,29.85L38.31,29.85z"/>
<path class="st0" d="M51.59,40.79h-7.32l-1.29,2.61c-0.32,0.64-0.47,1.12-0.47,1.44c0,0.24,0.14,0.48,0.42,0.66
	c0.28,0.19,0.87,0.31,1.78,0.37v0.45h-5.95v-0.45c0.79-0.12,1.3-0.28,1.53-0.48c0.47-0.39,1-1.18,1.58-2.38l6.65-13.58H49
	l6.58,13.73c0.53,1.1,1.01,1.81,1.44,2.15c0.43,0.33,1.04,0.51,1.81,0.55v0.45h-7.46v-0.45c0.75-0.03,1.26-0.14,1.53-0.33
	c0.27-0.19,0.4-0.42,0.4-0.68c0-0.36-0.19-0.92-0.56-1.7L51.59,40.79z M51.2,39.88l-3.21-6.67l-3.29,6.67
	C44.7,39.88,51.2,39.88,51.2,39.88z"/>
<path class="st0" d="M74.51,46.03l0.46,0.12l-1.62,6.08H58.7v-0.6h0.71c0.8,0,1.37-0.3,1.72-0.92c0.2-0.35,0.29-1.17,0.29-2.44
	V33.82c0-1.4-0.13-2.27-0.39-2.63c-0.37-0.49-0.9-0.73-1.62-0.73H58.7v-0.6h8.56v0.6c-1-0.01-1.71,0.1-2.11,0.32
	c-0.4,0.23-0.68,0.52-0.83,0.88c-0.15,0.35-0.22,1.19-0.22,2.53v14.07c0,0.91,0.08,1.54,0.22,1.88c0.11,0.23,0.28,0.4,0.51,0.51
	c0.23,0.11,0.96,0.17,2.17,0.17h1.38c1.45,0,2.47-0.13,3.05-0.38c0.59-0.25,1.12-0.71,1.6-1.35C73.54,48.43,74.02,47.42,74.51,46.03
	z"/>
<path class="st0" d="M17.33,47.48v1.65h-0.12c-0.04-0.32-0.11-0.57-0.21-0.76c-0.1-0.19-0.25-0.34-0.43-0.45
	c-0.18-0.11-0.38-0.17-0.58-0.17c-0.23,0-0.41,0.07-0.56,0.22c-0.15,0.15-0.22,0.32-0.22,0.51c0,0.14,0.05,0.28,0.14,0.4
	c0.14,0.17,0.45,0.41,0.96,0.71c0.41,0.24,0.69,0.42,0.85,0.55c0.15,0.12,0.27,0.28,0.35,0.45c0.08,0.17,0.12,0.35,0.12,0.55
	c0,0.36-0.13,0.67-0.39,0.94c-0.26,0.27-0.59,0.39-1,0.39c-0.13,0-0.25-0.01-0.36-0.03c-0.06-0.01-0.21-0.06-0.42-0.13
	c-0.21-0.07-0.35-0.11-0.4-0.11s-0.09,0.01-0.13,0.05c-0.03,0.04-0.06,0.11-0.07,0.22h-0.12v-1.63h0.12
	c0.06,0.35,0.13,0.6,0.23,0.77c0.09,0.17,0.24,0.31,0.44,0.42c0.2,0.12,0.41,0.17,0.64,0.17c0.27,0,0.49-0.08,0.64-0.23
	c0.16-0.15,0.23-0.34,0.23-0.55c0-0.12-0.03-0.24-0.09-0.35c-0.06-0.12-0.15-0.23-0.28-0.33c-0.08-0.07-0.32-0.22-0.69-0.45
	c-0.38-0.22-0.64-0.41-0.81-0.55c-0.16-0.14-0.28-0.29-0.37-0.45c-0.08-0.16-0.13-0.35-0.13-0.54c0-0.35,0.12-0.63,0.37-0.89
	c0.25-0.24,0.55-0.37,0.93-0.37c0.23,0,0.49,0.06,0.75,0.19c0.12,0.06,0.21,0.09,0.26,0.09c0.06,0,0.1-0.02,0.14-0.06
	s0.06-0.11,0.08-0.22L17.33,47.48L17.33,47.48L17.33,47.48z"/>
<path class="st0" d="M19.69,52.01c-0.3,0.25-0.5,0.4-0.57,0.45c-0.12,0.06-0.24,0.09-0.38,0.09c-0.2,0-0.38-0.08-0.51-0.23
	c-0.13-0.15-0.2-0.35-0.2-0.6c0-0.16,0.03-0.3,0.09-0.41c0.09-0.16,0.25-0.31,0.46-0.45c0.22-0.14,0.59-0.31,1.1-0.51v-0.13
	c0-0.32-0.05-0.54-0.15-0.66c-0.09-0.12-0.23-0.18-0.41-0.18c-0.14,0-0.25,0.04-0.32,0.12c-0.08,0.08-0.13,0.17-0.13,0.27l0.01,0.2
	c0,0.11-0.03,0.19-0.08,0.25s-0.12,0.09-0.2,0.09s-0.15-0.03-0.2-0.09c-0.06-0.06-0.08-0.14-0.08-0.25c0-0.2,0.09-0.39,0.29-0.55
	c0.19-0.17,0.46-0.25,0.8-0.25c0.27,0,0.48,0.05,0.65,0.14c0.13,0.07,0.22,0.19,0.28,0.34c0.04,0.1,0.06,0.31,0.06,0.62v1.09
	c0,0.31,0.01,0.5,0.02,0.56c0.01,0.06,0.03,0.12,0.06,0.14c0.03,0.02,0.06,0.04,0.08,0.04c0.04,0,0.06-0.01,0.09-0.02
	c0.05-0.03,0.13-0.12,0.27-0.26V52c-0.25,0.35-0.47,0.53-0.69,0.53c-0.11,0-0.19-0.04-0.25-0.12C19.73,52.33,19.7,52.21,19.69,52.01
	z M19.69,51.79v-1.22c-0.33,0.14-0.54,0.24-0.63,0.3c-0.17,0.1-0.29,0.21-0.37,0.32c-0.07,0.12-0.11,0.24-0.11,0.37
	c0,0.17,0.05,0.31,0.14,0.42c0.09,0.11,0.2,0.17,0.32,0.17C19.21,52.13,19.44,52.02,19.69,51.79z"/>
<path class="st0" d="M21.99,47.48v4.27c0,0.2,0.01,0.34,0.04,0.4s0.07,0.12,0.13,0.15c0.06,0.04,0.16,0.05,0.32,0.05v0.13h-1.46
	v-0.13c0.14,0,0.23-0.01,0.28-0.04c0.05-0.03,0.09-0.08,0.12-0.15s0.04-0.2,0.04-0.4v-2.92c0-0.36-0.01-0.58-0.03-0.67
	s-0.04-0.14-0.07-0.17c-0.04-0.03-0.08-0.04-0.13-0.04c-0.06,0-0.13,0.02-0.21,0.06l-0.06-0.12l0.88-0.4L21.99,47.48L21.99,47.48
	L21.99,47.48z"/>
<path class="st0" d="M24.29,49.16c0.45,0,0.82,0.19,1.09,0.55c0.23,0.32,0.35,0.68,0.35,1.09c0,0.29-0.06,0.58-0.19,0.88
	c-0.13,0.3-0.3,0.52-0.52,0.67c-0.23,0.15-0.47,0.22-0.75,0.22c-0.45,0-0.81-0.19-1.07-0.58c-0.22-0.32-0.33-0.69-0.33-1.09
	c0-0.3,0.06-0.59,0.2-0.88c0.14-0.3,0.31-0.5,0.53-0.65C23.8,49.23,24.04,49.16,24.29,49.16z M24.18,49.39
	c-0.11,0-0.23,0.04-0.35,0.11c-0.11,0.07-0.21,0.2-0.28,0.39c-0.07,0.19-0.11,0.42-0.11,0.71c0,0.47,0.08,0.87,0.26,1.21
	c0.17,0.34,0.4,0.51,0.68,0.51c0.21,0,0.39-0.09,0.52-0.28c0.14-0.19,0.2-0.51,0.2-0.96c0-0.57-0.11-1.02-0.34-1.35
	C24.62,49.51,24.42,49.39,24.18,49.39z"/>
<path class="st0" d="M27.03,49.85c0.35-0.45,0.68-0.68,1-0.68c0.16,0,0.3,0.04,0.42,0.13c0.11,0.09,0.21,0.23,0.28,0.43
	c0.05,0.14,0.07,0.35,0.07,0.65v1.37c0,0.2,0.02,0.35,0.05,0.42c0.03,0.06,0.06,0.11,0.11,0.14c0.06,0.03,0.15,0.05,0.29,0.05v0.13
	h-1.47v-0.13h0.06c0.14,0,0.23-0.02,0.29-0.07c0.06-0.04,0.09-0.12,0.11-0.2c0.01-0.04,0.01-0.14,0.01-0.33v-1.32
	c0-0.3-0.04-0.5-0.11-0.64c-0.07-0.13-0.19-0.2-0.36-0.2c-0.26,0-0.52,0.15-0.77,0.45v1.7c0,0.22,0.01,0.35,0.04,0.4
	c0.03,0.06,0.07,0.12,0.13,0.15c0.06,0.04,0.16,0.05,0.32,0.05v0.13h-1.47v-0.13h0.06c0.15,0,0.26-0.04,0.3-0.12
	c0.05-0.08,0.08-0.24,0.08-0.48v-1.19c0-0.39-0.01-0.62-0.03-0.71c-0.02-0.09-0.04-0.14-0.07-0.17c-0.03-0.03-0.08-0.04-0.14-0.04
	c-0.06,0-0.13,0.01-0.21,0.05l-0.05-0.13l0.9-0.4h0.14L27.03,49.85L27.03,49.85z"/>
<path class="st0" d="M33.11,52.34c-0.15,0.17-0.29,0.28-0.42,0.35c-0.14,0.07-0.29,0.11-0.45,0.11c-0.32,0-0.61-0.14-0.85-0.44
	c-0.25-0.3-0.37-0.67-0.37-1.13s0.14-0.89,0.4-1.27c0.27-0.38,0.62-0.58,1.04-0.58c0.27,0,0.48,0.09,0.65,0.27v-0.6
	c0-0.37-0.01-0.6-0.03-0.68c-0.02-0.08-0.04-0.14-0.08-0.17s-0.08-0.04-0.13-0.04c-0.06,0-0.13,0.02-0.23,0.06l-0.04-0.12l0.88-0.4
	h0.15v3.72c0,0.37,0.01,0.6,0.03,0.69c0.02,0.09,0.04,0.14,0.08,0.17c0.04,0.03,0.08,0.05,0.13,0.05c0.06,0,0.14-0.02,0.23-0.06
	l0.04,0.12l-0.88,0.4H33.1v-0.47L33.11,52.34L33.11,52.34z M33.11,52.1v-1.66c-0.01-0.16-0.06-0.3-0.12-0.44
	c-0.06-0.13-0.15-0.23-0.26-0.3c-0.11-0.06-0.21-0.1-0.31-0.1c-0.19,0-0.36,0.09-0.51,0.28c-0.2,0.24-0.3,0.6-0.3,1.07
	c0,0.48,0.09,0.84,0.29,1.09c0.19,0.25,0.4,0.37,0.64,0.37C32.73,52.42,32.92,52.31,33.11,52.1z"/>
<path class="st0" d="M34.84,50.7c0,0.48,0.11,0.86,0.32,1.12c0.21,0.27,0.47,0.41,0.76,0.41c0.2,0,0.37-0.06,0.51-0.17
	c0.15-0.12,0.27-0.32,0.37-0.6l0.1,0.07c-0.05,0.32-0.18,0.61-0.4,0.88c-0.21,0.27-0.49,0.4-0.83,0.4c-0.36,0-0.66-0.15-0.92-0.45
	c-0.26-0.3-0.39-0.71-0.39-1.22c0-0.55,0.13-0.98,0.4-1.29s0.59-0.46,0.99-0.46c0.33,0,0.61,0.12,0.83,0.36
	c0.21,0.24,0.32,0.55,0.32,0.96L34.84,50.7L34.84,50.7L34.84,50.7z M34.84,50.5h1.38c-0.01-0.21-0.04-0.35-0.06-0.44
	c-0.06-0.13-0.14-0.24-0.25-0.31c-0.11-0.07-0.22-0.12-0.33-0.12c-0.18,0-0.34,0.07-0.49,0.22S34.86,50.23,34.84,50.5z"/>
<path class="st0" d="M40.73,50.05c0.3,0.07,0.53,0.18,0.69,0.34c0.21,0.22,0.32,0.48,0.32,0.79c0,0.24-0.07,0.46-0.21,0.68
	c-0.14,0.22-0.33,0.37-0.57,0.48c-0.24,0.1-0.61,0.15-1.11,0.15h-2.08v-0.13h0.17c0.18,0,0.32-0.06,0.4-0.19
	c0.05-0.08,0.08-0.26,0.08-0.53v-3.08c0-0.3-0.03-0.48-0.09-0.56c-0.08-0.1-0.21-0.15-0.38-0.15h-0.17v-0.13h1.91
	c0.35,0,0.64,0.03,0.86,0.09c0.32,0.09,0.57,0.23,0.75,0.45c0.17,0.22,0.26,0.46,0.26,0.74c0,0.24-0.06,0.45-0.2,0.64
	C41.19,49.82,41,49.95,40.73,50.05z M39.03,49.86c0.08,0.01,0.17,0.03,0.28,0.04c0.1,0.01,0.21,0.01,0.34,0.01
	c0.32,0,0.56-0.04,0.71-0.11c0.16-0.07,0.28-0.19,0.37-0.34s0.13-0.32,0.13-0.5c0-0.28-0.11-0.52-0.32-0.71
	c-0.21-0.19-0.52-0.3-0.92-0.3c-0.21,0-0.41,0.03-0.59,0.08V49.86L39.03,49.86z M39.03,52.13c0.25,0.06,0.51,0.09,0.75,0.09
	c0.4,0,0.69-0.09,0.9-0.29c0.2-0.19,0.31-0.42,0.31-0.71c0-0.19-0.05-0.36-0.14-0.53c-0.09-0.17-0.25-0.3-0.45-0.4
	c-0.21-0.1-0.47-0.15-0.78-0.15c-0.13,0-0.25,0-0.35,0.01c-0.09,0.01-0.17,0.01-0.23,0.02V52.13L39.03,52.13z"/>
<path class="st0" d="M42.81,50.47c0,0.48,0.11,0.86,0.32,1.12C43.35,51.87,43.61,52,43.9,52c0.2,0,0.37-0.06,0.51-0.17
	c0.15-0.12,0.27-0.32,0.37-0.6l0.1,0.07c-0.05,0.32-0.18,0.61-0.4,0.88c-0.22,0.27-0.49,0.4-0.83,0.4c-0.36,0-0.66-0.15-0.92-0.45
	c-0.26-0.3-0.39-0.71-0.39-1.22c0-0.55,0.13-0.98,0.4-1.29c0.27-0.31,0.59-0.46,0.99-0.46c0.33,0,0.61,0.12,0.83,0.36
	c0.21,0.24,0.32,0.55,0.32,0.96L42.81,50.47L42.81,50.47L42.81,50.47z M42.81,50.27h1.38c-0.01-0.21-0.04-0.35-0.06-0.44
	c-0.06-0.13-0.14-0.24-0.25-0.31c-0.11-0.07-0.22-0.12-0.33-0.12c-0.18,0-0.34,0.07-0.49,0.22C42.92,49.78,42.84,50,42.81,50.27z"/>
<path class="st0" d="M46.3,47.48v4.27c0,0.2,0.01,0.34,0.04,0.4s0.07,0.12,0.13,0.15s0.16,0.05,0.32,0.05v0.13h-1.46v-0.13
	c0.14,0,0.23-0.01,0.28-0.04c0.05-0.03,0.09-0.08,0.12-0.15c0.03-0.07,0.04-0.2,0.04-0.4v-2.92c0-0.36-0.01-0.58-0.03-0.67
	c-0.02-0.09-0.04-0.14-0.07-0.17c-0.04-0.03-0.08-0.04-0.13-0.04c-0.06,0-0.13,0.02-0.21,0.06l-0.06-0.12l0.88-0.4L46.3,47.48
	L46.3,47.48L46.3,47.48z"/>
<path class="st0" d="M48.16,47.48v4.27c0,0.2,0.01,0.34,0.04,0.4c0.03,0.06,0.07,0.12,0.13,0.15c0.06,0.04,0.16,0.05,0.32,0.05v0.13
	h-1.46v-0.13c0.14,0,0.23-0.01,0.28-0.04c0.05-0.03,0.09-0.08,0.12-0.15c0.03-0.07,0.04-0.2,0.04-0.4v-2.92
	c0-0.36-0.01-0.58-0.03-0.67c-0.02-0.09-0.04-0.14-0.07-0.17c-0.04-0.03-0.08-0.04-0.13-0.04c-0.06,0-0.13,0.02-0.21,0.06
	l-0.06-0.12l0.88-0.4L48.16,47.48L48.16,47.48L48.16,47.48z"/>
<path class="st0" d="M49.48,50.47c0,0.48,0.11,0.86,0.32,1.12c0.21,0.27,0.47,0.41,0.76,0.41c0.2,0,0.37-0.06,0.51-0.17
	c0.15-0.12,0.27-0.32,0.37-0.6l0.1,0.07c-0.05,0.32-0.18,0.61-0.4,0.88c-0.21,0.27-0.49,0.4-0.83,0.4c-0.36,0-0.66-0.15-0.92-0.45
	c-0.26-0.3-0.39-0.71-0.39-1.22c0-0.55,0.13-0.98,0.4-1.29c0.27-0.31,0.59-0.46,0.99-0.46c0.33,0,0.61,0.12,0.83,0.36
	c0.21,0.24,0.32,0.55,0.32,0.96L49.48,50.47L49.48,50.47L49.48,50.47z M49.48,50.27h1.38c-0.01-0.21-0.04-0.35-0.06-0.44
	c-0.06-0.13-0.14-0.24-0.25-0.31c-0.11-0.07-0.22-0.12-0.33-0.12c-0.18,0-0.34,0.07-0.49,0.22C49.59,49.78,49.51,50,49.48,50.27z"/>
<path class="st0" d="M54.53,51.49l-0.04,0.99h-2.63v-0.13l1.98-2.85h-0.98c-0.21,0-0.35,0.01-0.41,0.04
	c-0.06,0.03-0.12,0.09-0.16,0.17c-0.06,0.12-0.09,0.26-0.1,0.44h-0.13l0.02-0.89h2.5v0.13l-2,2.85h1.09c0.23,0,0.39-0.02,0.46-0.06
	c0.08-0.04,0.15-0.12,0.2-0.22c0.04-0.07,0.06-0.23,0.09-0.48h0.11L54.53,51.49L54.53,51.49z"/>
<path class="st0" d="M56.6,52.01c-0.3,0.25-0.5,0.4-0.57,0.45c-0.12,0.06-0.24,0.09-0.38,0.09c-0.2,0-0.38-0.08-0.51-0.23
	c-0.13-0.15-0.2-0.35-0.2-0.6c0-0.16,0.03-0.3,0.09-0.41c0.09-0.16,0.25-0.31,0.46-0.45c0.22-0.14,0.59-0.31,1.1-0.51v-0.13
	c0-0.32-0.05-0.54-0.15-0.66c-0.09-0.12-0.23-0.18-0.41-0.18c-0.14,0-0.25,0.04-0.32,0.12c-0.08,0.08-0.13,0.17-0.13,0.27l0.01,0.2
	c0,0.11-0.03,0.19-0.08,0.25s-0.12,0.09-0.2,0.09c-0.08,0-0.15-0.03-0.2-0.09c-0.06-0.06-0.08-0.14-0.08-0.25
	c0-0.2,0.09-0.39,0.29-0.55c0.19-0.17,0.46-0.25,0.8-0.25c0.27,0,0.48,0.05,0.65,0.14c0.13,0.07,0.22,0.19,0.28,0.34
	c0.04,0.1,0.06,0.31,0.06,0.62v1.09c0,0.31,0.01,0.5,0.02,0.56c0.01,0.06,0.03,0.12,0.06,0.14s0.06,0.04,0.08,0.04
	c0.04,0,0.06-0.01,0.09-0.02c0.05-0.03,0.13-0.12,0.27-0.26V52c-0.25,0.35-0.47,0.53-0.69,0.53c-0.11,0-0.19-0.04-0.25-0.12
	C56.63,52.33,56.6,52.21,56.6,52.01z M56.6,51.79v-1.22c-0.33,0.14-0.54,0.24-0.63,0.3c-0.17,0.1-0.29,0.21-0.37,0.32
	c-0.07,0.12-0.11,0.24-0.11,0.37c0,0.17,0.05,0.31,0.14,0.42c0.09,0.11,0.2,0.17,0.32,0.17C56.11,52.13,56.33,52.02,56.6,51.79z"/>
<g>
	<path class="st1" d="M10.02,38.1c0.23,0.81,0.29,1.25,0.23,1.53C10.19,39.91,10,40,9.88,40.19c-0.27,0.34-0.54,0.68-0.78,1.04
		c-0.9,1.35-1.57,2.84-1.42,4.53c0.33,2.68,2.27,5.06,4.47,6.13c5.07,2.22,10.77,1.8,16.15,1.99c3.67,0.03,7.35,0.05,11.03,0.14
		c14.46,0.24,29.64,0.7,44.11,0.36c-6.29,0.37-15.64,0.32-22.06,0.41c-11.03,0.08-22.06-0.06-33.08,0.04
		c-3.68,0.01-7.36,0.02-11.07-0.3c-2.79-0.33-5.91-0.58-8.28-2.64c-1.61-1.43-3.12-3.19-3.68-5.58C4.49,43.19,5.94,39.9,8,37.93
		c0.2-0.18,0.39-0.45,0.65-0.48C8.88,37.4,9.55,37.54,10.02,38.1L10.02,38.1z"/>
</g>
</svg>
