<?xml version="1.0" encoding="utf-8"?>
<!-- Generator: Adobe Illustrator 26.4.1, SVG Export Plug-In . SVG Version: 6.00 Build 0)  -->
<svg version="1.1" xmlns="http://www.w3.org/2000/svg" xmlns:xlink="http://www.w3.org/1999/xlink" x="0px" y="0px"
	 viewBox="0 0 90 90" style="enable-background:new 0 0 90 90;" xml:space="preserve">
<style type="text/css">
	.st0{fill:#CC9A44;}
	.st1{fill:#CC9A46;}
	.st2{fill:#1D1D1B;}
</style>
<g id="Capa_2">
	<polygon class="st0" points="58.79,45.96 12.32,45.96 12.47,52.23 58.94,52.22 	"/>
</g>
<g id="Capa_1">
	<path class="st1" d="M31.14,46.34h-5.05l-6.4-7.72c-0.47,0.01-0.87,0.02-1.16,0.02c-0.12,0-0.25,0-0.39-0.01s-0.28-0.01-0.43-0.01
		v4.8c0,1.04,0.13,1.68,0.39,1.94c0.35,0.36,0.88,0.59,1.59,0.59h0.73v0.38h-8.11v-0.45h0.71c0.8,0,1.37-0.22,1.72-0.68
		c0.2-0.24,0.29-0.85,0.29-1.79V32.76c0-1.04-0.13-1.68-0.39-1.94c-0.37-0.36-0.9-0.53-1.62-0.53h-0.71v-0.45h6.89
		c2.01,0,3.49,0.13,4.44,0.38c0.95,0.26,1.76,0.73,2.43,1.42c0.67,0.69,0.99,1.5,0.99,2.45c0,1.02-0.39,1.89-1.14,2.64
		c-0.76,0.74-1.93,1.27-3.52,1.58l3.91,4.74c0.9,1.09,1.66,1.81,2.31,2.17c0.64,0.36,1.48,0.58,2.51,0.68L31.14,46.34L31.14,46.34z
		 M17.71,37.86c0.18,0,0.33,0,0.46,0.01c0.13,0.01,0.23,0.01,0.32,0.01c1.8,0,3.16-0.35,4.08-1.02c0.91-0.68,1.38-1.55,1.38-2.61
		c0-1.03-0.37-1.87-1.11-2.51c-0.74-0.65-1.72-0.96-2.93-0.96c-0.54,0-1.27,0.08-2.19,0.23L17.71,37.86L17.71,37.86z"/>
	<path class="st1" d="M38.31,28.69l28.94-0.22v0.45l-22.71,0.22c-0.92,0.2-1.2,0.83-1.38,1.07c-0.31,0.34-0.65,0.78-0.95,1.2
		c-0.39,0.35-0.85,0.92-1.41,1.7l-4.56,6.26v4.13c0,1.02,0.13,1.65,0.39,1.89c0.35,0.35,0.89,0.56,1.66,0.56l0.63,0.03v0.37h-8.03
		v-0.44h0.67c0.8,0,1.37-0.21,1.7-0.63c0.2-0.26,0.31-0.86,0.31-1.77v-3.9l-5.19-6.9c-0.61-0.81-0.99-1.41-1.15-1.66
		c-0.17-0.28-0.76-1.5-1.45-1.78c-0.19-0.08-13.1-0.17-13.46-0.17v-0.45l20.74,0.04v0.45h-0.42c-0.44,0-1.17,0.37-1.41,0.71
		c-0.42,0.59-0.41,1.16-0.36,1.55c0.06,0.49,0.28,0.81,0.85,1.58l3.95,5.31l3.71-5.08c0.56-0.76,0.79-1.41,0.93-1.76
		c0.12-0.3,0.17-0.65-0.01-1.09c-0.14-0.35-0.61-0.96-0.87-1.06c-0.25-0.1-0.63-0.15-1.13-0.15L38.31,28.69L38.31,28.69L38.31,28.69
		z"/>
	<path class="st1" d="M51.58,41.01h-7.32l-1.29,2.61c-0.32,0.64-0.47,1.12-0.47,1.44c0,0.24,0.14,0.48,0.42,0.66
		c0.28,0.19,0.89,0.18,1.8,0.24l-0.03,0.58h-5.95v-0.56c0.83-0.05,1.06,0.05,1.55-0.33c0.47-0.39,0.98-1.21,1.56-2.4l6.65-13.58
		h0.49l6.58,13.73c0.53,1.1,1.01,1.81,1.44,2.15c0.43,0.33,1.02,0.38,1.79,0.42l0.02,0.58h-7.46l-0.01-0.58
		c0.75-0.03,1.28-0.01,1.54-0.2c0.27-0.19,0.4-0.42,0.4-0.68c0-0.36-0.19-0.92-0.56-1.7L51.58,41.01z M51.18,40.11l-3.21-6.67
		l-3.29,6.67C44.68,40.11,51.18,40.11,51.18,40.11z"/>
	<path class="st1" d="M74.51,46.03l0.46,0.12l-1.62,6.08H58.7v-0.6h0.71c0.8,0,1.37-0.3,1.72-0.92c0.2-0.35,0.29-1.17,0.29-2.44
		V33.82c0-1.4-0.13-2.27-0.39-2.63c-0.37-0.49-0.9-0.73-1.62-0.73H58.7v-0.6h8.56v0.6c-1-0.01-1.71,0.1-2.11,0.32
		c-0.4,0.23-0.68,0.52-0.83,0.88c-0.15,0.35-0.22,1.19-0.22,2.53v14.07c0,0.91,0.08,1.54,0.22,1.88c0.11,0.23,0.28,0.4,0.51,0.51
		c0.23,0.11,0.96,0.17,2.17,0.17h1.38c1.45,0,2.47-0.13,3.05-0.38c0.59-0.25,1.12-0.71,1.6-1.35
		C73.54,48.43,74.02,47.42,74.51,46.03z"/>
	<g>
		<path class="st2" d="M16.62,46.62v1.65H16.5c-0.04-0.32-0.11-0.57-0.21-0.76c-0.1-0.19-0.25-0.34-0.43-0.45
			c-0.18-0.11-0.38-0.17-0.58-0.17c-0.23,0-0.41,0.07-0.56,0.22c-0.15,0.15-0.22,0.32-0.22,0.51c0,0.14,0.05,0.28,0.14,0.4
			c0.14,0.17,0.45,0.41,0.96,0.71c0.41,0.24,0.69,0.42,0.85,0.55c0.15,0.12,0.27,0.28,0.35,0.45c0.08,0.17,0.12,0.35,0.12,0.55
			c0,0.36-0.13,0.67-0.39,0.94c-0.26,0.27-0.59,0.39-1,0.39c-0.13,0-0.25-0.01-0.36-0.03c-0.06-0.01-0.21-0.06-0.42-0.13
			c-0.21-0.07-0.35-0.11-0.4-0.11c-0.06,0-0.09,0.01-0.13,0.05c-0.03,0.04-0.06,0.11-0.07,0.22h-0.12v-1.63h0.12
			c0.06,0.35,0.13,0.6,0.23,0.77s0.24,0.31,0.44,0.42c0.2,0.12,0.41,0.17,0.64,0.17c0.27,0,0.49-0.08,0.64-0.23
			c0.16-0.15,0.23-0.34,0.23-0.55c0-0.12-0.03-0.24-0.09-0.35c-0.06-0.12-0.15-0.23-0.28-0.33c-0.08-0.07-0.32-0.22-0.69-0.45
			c-0.38-0.22-0.64-0.41-0.81-0.55c-0.16-0.14-0.28-0.29-0.37-0.45c-0.08-0.16-0.13-0.35-0.13-0.54c0-0.35,0.12-0.63,0.37-0.89
			c0.25-0.24,0.55-0.37,0.93-0.37c0.23,0,0.49,0.06,0.75,0.19c0.12,0.06,0.21,0.09,0.26,0.09c0.06,0,0.1-0.02,0.14-0.06
			s0.06-0.11,0.08-0.22L16.62,46.62L16.62,46.62L16.62,46.62z"/>
		<path class="st2" d="M18.98,51.15c-0.3,0.25-0.5,0.4-0.57,0.45c-0.12,0.06-0.24,0.09-0.38,0.09c-0.2,0-0.38-0.08-0.51-0.23
			c-0.13-0.15-0.2-0.35-0.2-0.6c0-0.16,0.03-0.3,0.09-0.41c0.09-0.16,0.25-0.31,0.46-0.45c0.22-0.14,0.59-0.31,1.1-0.51v-0.13
			c0-0.32-0.05-0.54-0.15-0.66c-0.09-0.12-0.23-0.18-0.41-0.18c-0.14,0-0.25,0.04-0.32,0.12c-0.08,0.08-0.13,0.17-0.13,0.27
			l0.01,0.2c0,0.11-0.03,0.19-0.08,0.25s-0.12,0.09-0.2,0.09s-0.15-0.03-0.2-0.09c-0.06-0.06-0.08-0.14-0.08-0.25
			c0-0.2,0.09-0.39,0.29-0.55c0.19-0.17,0.46-0.25,0.8-0.25c0.27,0,0.48,0.05,0.65,0.14c0.13,0.07,0.22,0.19,0.28,0.34
			c0.04,0.1,0.06,0.31,0.06,0.62v1.09c0,0.31,0.01,0.5,0.02,0.56c0.01,0.06,0.03,0.12,0.06,0.14c0.03,0.02,0.06,0.04,0.08,0.04
			c0.04,0,0.06-0.01,0.09-0.02c0.05-0.03,0.13-0.12,0.27-0.26v0.19c-0.25,0.35-0.47,0.53-0.69,0.53c-0.11,0-0.19-0.04-0.25-0.12
			C19.02,51.47,18.99,51.35,18.98,51.15z M18.98,50.93V49.7c-0.33,0.14-0.54,0.24-0.63,0.3c-0.17,0.1-0.29,0.21-0.37,0.32
			c-0.07,0.12-0.11,0.24-0.11,0.37c0,0.17,0.05,0.31,0.14,0.42c0.09,0.11,0.2,0.17,0.32,0.17C18.5,51.27,18.72,51.16,18.98,50.93z"
			/>
		<path class="st2" d="M21.28,46.62v4.27c0,0.2,0.01,0.34,0.04,0.4c0.03,0.06,0.07,0.12,0.13,0.15c0.06,0.04,0.16,0.05,0.32,0.05
			v0.13h-1.46v-0.13c0.14,0,0.23-0.01,0.28-0.04c0.05-0.03,0.09-0.08,0.12-0.15s0.04-0.2,0.04-0.4v-2.92c0-0.36-0.01-0.58-0.03-0.67
			c-0.02-0.09-0.04-0.14-0.07-0.17c-0.04-0.03-0.08-0.04-0.13-0.04c-0.06,0-0.13,0.02-0.21,0.06l-0.06-0.12l0.88-0.4L21.28,46.62
			L21.28,46.62L21.28,46.62z"/>
		<path class="st2" d="M23.57,48.3c0.45,0,0.82,0.19,1.09,0.55c0.23,0.32,0.35,0.68,0.35,1.09c0,0.29-0.06,0.58-0.19,0.88
			c-0.13,0.3-0.3,0.52-0.52,0.67c-0.23,0.15-0.47,0.22-0.75,0.22c-0.45,0-0.81-0.19-1.07-0.58c-0.22-0.32-0.33-0.69-0.33-1.09
			c0-0.3,0.06-0.59,0.2-0.88c0.14-0.3,0.31-0.5,0.53-0.65C23.09,48.37,23.32,48.3,23.57,48.3z M23.47,48.53
			c-0.11,0-0.23,0.04-0.35,0.11c-0.11,0.07-0.21,0.2-0.28,0.39c-0.07,0.19-0.11,0.42-0.11,0.71c0,0.47,0.08,0.87,0.26,1.21
			c0.17,0.34,0.4,0.51,0.68,0.51c0.21,0,0.39-0.09,0.52-0.28c0.14-0.19,0.2-0.51,0.2-0.96c0-0.57-0.11-1.02-0.34-1.35
			C23.9,48.65,23.71,48.53,23.47,48.53z"/>
		<path class="st2" d="M26.32,48.98c0.35-0.45,0.68-0.68,1-0.68c0.16,0,0.3,0.04,0.42,0.13c0.11,0.09,0.21,0.23,0.28,0.43
			c0.05,0.14,0.07,0.35,0.07,0.65v1.37c0,0.2,0.02,0.35,0.05,0.42c0.03,0.06,0.06,0.11,0.11,0.14c0.06,0.03,0.15,0.05,0.29,0.05
			v0.13h-1.47v-0.13h0.06c0.14,0,0.23-0.02,0.29-0.07c0.06-0.04,0.09-0.12,0.11-0.2c0.01-0.04,0.01-0.14,0.01-0.33v-1.32
			c0-0.3-0.04-0.5-0.11-0.64c-0.07-0.13-0.19-0.2-0.36-0.2c-0.26,0-0.52,0.15-0.77,0.45v1.7c0,0.22,0.01,0.35,0.04,0.4
			c0.03,0.06,0.07,0.12,0.13,0.15c0.06,0.04,0.16,0.05,0.32,0.05v0.13h-1.47v-0.13h0.06c0.15,0,0.26-0.04,0.3-0.12
			c0.05-0.08,0.08-0.24,0.08-0.48v-1.19c0-0.39-0.01-0.62-0.03-0.71s-0.04-0.14-0.07-0.17c-0.03-0.03-0.08-0.04-0.14-0.04
			c-0.06,0-0.13,0.01-0.21,0.05l-0.05-0.13l0.9-0.4h0.14L26.32,48.98L26.32,48.98z"/>
		<path class="st2" d="M32.39,51.48c-0.15,0.17-0.29,0.28-0.42,0.35c-0.14,0.07-0.29,0.11-0.45,0.11c-0.32,0-0.61-0.14-0.85-0.44
			c-0.25-0.3-0.37-0.67-0.37-1.13c0-0.46,0.14-0.89,0.4-1.27c0.27-0.38,0.62-0.58,1.04-0.58c0.27,0,0.48,0.09,0.65,0.27v-0.6
			c0-0.37-0.01-0.6-0.03-0.68c-0.02-0.08-0.04-0.14-0.08-0.17s-0.08-0.04-0.13-0.04c-0.06,0-0.13,0.02-0.23,0.06l-0.04-0.12
			l0.88-0.4h0.15v3.72c0,0.37,0.01,0.6,0.03,0.69c0.02,0.09,0.04,0.14,0.08,0.17c0.04,0.03,0.08,0.05,0.13,0.05
			c0.06,0,0.14-0.02,0.23-0.06l0.04,0.12l-0.88,0.4h-0.15v-0.47L32.39,51.48L32.39,51.48z M32.39,51.24v-1.66
			c-0.01-0.16-0.06-0.3-0.12-0.44c-0.06-0.13-0.15-0.23-0.26-0.3c-0.11-0.06-0.21-0.1-0.31-0.1c-0.19,0-0.36,0.09-0.51,0.28
			c-0.2,0.24-0.3,0.6-0.3,1.07c0,0.48,0.09,0.84,0.29,1.09c0.19,0.25,0.4,0.37,0.64,0.37C32.01,51.56,32.21,51.45,32.39,51.24z"/>
		<path class="st2" d="M34.12,49.84c0,0.48,0.11,0.86,0.32,1.12c0.21,0.27,0.47,0.41,0.76,0.41c0.2,0,0.37-0.06,0.51-0.17
			c0.15-0.12,0.27-0.32,0.37-0.6l0.1,0.07c-0.05,0.32-0.18,0.61-0.4,0.88c-0.21,0.27-0.49,0.4-0.83,0.4c-0.36,0-0.66-0.15-0.92-0.45
			c-0.26-0.3-0.39-0.71-0.39-1.22c0-0.55,0.13-0.98,0.4-1.29c0.27-0.31,0.59-0.46,0.99-0.46c0.33,0,0.61,0.12,0.83,0.36
			c0.21,0.24,0.32,0.55,0.32,0.96L34.12,49.84L34.12,49.84L34.12,49.84z M34.12,49.64h1.38c-0.01-0.21-0.04-0.35-0.06-0.44
			c-0.06-0.13-0.14-0.24-0.25-0.31c-0.11-0.07-0.22-0.12-0.33-0.12c-0.18,0-0.34,0.07-0.49,0.22
			C34.23,49.15,34.15,49.37,34.12,49.64z"/>
		<path class="st2" d="M40.02,49.19c0.3,0.07,0.53,0.18,0.69,0.34c0.21,0.22,0.32,0.48,0.32,0.79c0,0.24-0.07,0.46-0.21,0.68
			c-0.14,0.22-0.33,0.37-0.57,0.48c-0.24,0.1-0.61,0.15-1.11,0.15h-2.08v-0.13h0.17c0.18,0,0.32-0.06,0.4-0.19
			c0.05-0.08,0.08-0.26,0.08-0.53V47.7c0-0.3-0.03-0.48-0.09-0.56c-0.08-0.1-0.21-0.15-0.38-0.15h-0.17v-0.13h1.91
			c0.35,0,0.64,0.03,0.86,0.09c0.32,0.09,0.57,0.23,0.75,0.45c0.17,0.22,0.26,0.46,0.26,0.74c0,0.24-0.06,0.45-0.2,0.64
			C40.48,48.96,40.28,49.09,40.02,49.19z M38.31,49c0.08,0.01,0.17,0.03,0.28,0.04c0.1,0.01,0.21,0.01,0.34,0.01
			c0.32,0,0.56-0.04,0.71-0.11c0.16-0.07,0.28-0.19,0.37-0.34c0.08-0.15,0.13-0.32,0.13-0.5c0-0.28-0.11-0.52-0.32-0.71
			c-0.21-0.19-0.52-0.3-0.92-0.3c-0.21,0-0.41,0.03-0.59,0.08V49L38.31,49z M38.31,51.27c0.25,0.06,0.51,0.09,0.75,0.09
			c0.4,0,0.69-0.09,0.9-0.29c0.2-0.19,0.31-0.42,0.31-0.71c0-0.19-0.05-0.36-0.14-0.53c-0.09-0.17-0.25-0.3-0.45-0.4
			c-0.21-0.1-0.47-0.15-0.78-0.15c-0.13,0-0.25,0-0.35,0.01c-0.09,0.01-0.17,0.01-0.23,0.02V51.27L38.31,51.27z"/>
		<path class="st2" d="M42.1,49.61c0,0.48,0.11,0.86,0.32,1.12c0.21,0.27,0.47,0.41,0.76,0.41c0.2,0,0.37-0.06,0.51-0.17
			s0.27-0.32,0.37-0.6l0.1,0.07c-0.05,0.32-0.18,0.61-0.4,0.88c-0.22,0.27-0.49,0.4-0.83,0.4c-0.36,0-0.66-0.15-0.92-0.45
			c-0.26-0.3-0.39-0.71-0.39-1.22c0-0.55,0.13-0.98,0.4-1.29c0.27-0.31,0.59-0.46,0.99-0.46c0.33,0,0.61,0.12,0.83,0.36
			c0.21,0.24,0.32,0.55,0.32,0.96L42.1,49.61L42.1,49.61L42.1,49.61z M42.1,49.41h1.38c-0.01-0.21-0.04-0.35-0.06-0.44
			c-0.06-0.13-0.14-0.24-0.25-0.31c-0.11-0.07-0.22-0.12-0.33-0.12c-0.18,0-0.34,0.07-0.49,0.22C42.21,48.92,42.12,49.14,42.1,49.41
			z"/>
		<path class="st2" d="M45.59,46.62v4.27c0,0.2,0.01,0.34,0.04,0.4c0.03,0.06,0.07,0.12,0.13,0.15s0.16,0.05,0.32,0.05v0.13h-1.46
			v-0.13c0.14,0,0.23-0.01,0.28-0.04c0.05-0.03,0.09-0.08,0.12-0.15c0.03-0.07,0.04-0.2,0.04-0.4v-2.92c0-0.36-0.01-0.58-0.03-0.67
			c-0.02-0.09-0.04-0.14-0.07-0.17c-0.04-0.03-0.08-0.04-0.13-0.04c-0.06,0-0.13,0.02-0.21,0.06l-0.06-0.12l0.88-0.4L45.59,46.62
			L45.59,46.62L45.59,46.62z"/>
		<path class="st2" d="M47.44,46.62v4.27c0,0.2,0.01,0.34,0.04,0.4c0.03,0.06,0.07,0.12,0.13,0.15c0.06,0.04,0.16,0.05,0.32,0.05
			v0.13h-1.46v-0.13c0.14,0,0.23-0.01,0.28-0.04c0.05-0.03,0.09-0.08,0.12-0.15c0.03-0.07,0.04-0.2,0.04-0.4v-2.92
			c0-0.36-0.01-0.58-0.03-0.67c-0.02-0.09-0.04-0.14-0.07-0.17c-0.04-0.03-0.08-0.04-0.13-0.04c-0.06,0-0.13,0.02-0.21,0.06
			l-0.06-0.12l0.88-0.4L47.44,46.62L47.44,46.62L47.44,46.62z"/>
		<path class="st2" d="M48.77,49.61c0,0.48,0.11,0.86,0.32,1.12c0.21,0.27,0.47,0.41,0.76,0.41c0.2,0,0.37-0.06,0.51-0.17
			s0.27-0.32,0.37-0.6l0.1,0.07c-0.05,0.32-0.18,0.61-0.4,0.88c-0.21,0.27-0.49,0.4-0.83,0.4c-0.36,0-0.66-0.15-0.92-0.45
			c-0.26-0.3-0.39-0.71-0.39-1.22c0-0.55,0.13-0.98,0.4-1.29s0.59-0.46,0.99-0.46c0.33,0,0.61,0.12,0.83,0.36
			c0.21,0.24,0.32,0.55,0.32,0.96L48.77,49.61L48.77,49.61L48.77,49.61z M48.77,49.41h1.38c-0.01-0.21-0.04-0.35-0.06-0.44
			c-0.06-0.13-0.14-0.24-0.25-0.31c-0.11-0.07-0.22-0.12-0.33-0.12c-0.18,0-0.34,0.07-0.49,0.22C48.88,48.92,48.8,49.14,48.77,49.41
			z"/>
		<path class="st2" d="M53.82,50.63l-0.04,0.99h-2.63v-0.13l1.98-2.85h-0.98c-0.21,0-0.35,0.01-0.41,0.04
			c-0.06,0.03-0.12,0.09-0.16,0.17c-0.06,0.12-0.09,0.26-0.1,0.44h-0.13l0.02-0.89h2.5v0.13l-2,2.85h1.09
			c0.23,0,0.39-0.02,0.46-0.06c0.08-0.04,0.15-0.12,0.2-0.22c0.04-0.07,0.06-0.23,0.09-0.48h0.11L53.82,50.63L53.82,50.63z"/>
		<path class="st2" d="M55.88,51.15c-0.3,0.25-0.5,0.4-0.57,0.45c-0.12,0.06-0.24,0.09-0.38,0.09c-0.2,0-0.38-0.08-0.51-0.23
			c-0.13-0.15-0.2-0.35-0.2-0.6c0-0.16,0.03-0.3,0.09-0.41c0.09-0.16,0.25-0.31,0.46-0.45c0.22-0.14,0.59-0.31,1.1-0.51v-0.13
			c0-0.32-0.05-0.54-0.15-0.66c-0.09-0.12-0.23-0.18-0.41-0.18c-0.14,0-0.25,0.04-0.32,0.12c-0.08,0.08-0.13,0.17-0.13,0.27
			l0.01,0.2c0,0.11-0.03,0.19-0.08,0.25s-0.12,0.09-0.2,0.09c-0.08,0-0.15-0.03-0.2-0.09c-0.06-0.06-0.08-0.14-0.08-0.25
			c0-0.2,0.09-0.39,0.29-0.55c0.19-0.17,0.46-0.25,0.8-0.25c0.27,0,0.48,0.05,0.65,0.14c0.13,0.07,0.22,0.19,0.28,0.34
			c0.04,0.1,0.06,0.31,0.06,0.62v1.09c0,0.31,0.01,0.5,0.02,0.56c0.01,0.06,0.03,0.12,0.06,0.14c0.03,0.02,0.06,0.04,0.08,0.04
			c0.04,0,0.06-0.01,0.09-0.02c0.05-0.03,0.13-0.12,0.27-0.26v0.19c-0.25,0.35-0.47,0.53-0.69,0.53c-0.11,0-0.19-0.04-0.25-0.12
			C55.92,51.47,55.88,51.35,55.88,51.15z M55.88,50.93V49.7c-0.33,0.14-0.54,0.24-0.63,0.3c-0.17,0.1-0.29,0.21-0.37,0.32
			c-0.07,0.12-0.11,0.24-0.11,0.37c0,0.17,0.05,0.31,0.14,0.42c0.09,0.11,0.2,0.17,0.32,0.17C55.39,51.27,55.61,51.16,55.88,50.93z"
			/>
	</g>
</g>
</svg>
